<svg xmlns="http://www.w3.org/2000/svg" viewBox="0 0 512 512" role="img" aria-label="Beach-Volleyball Turniervorlagen">
  <defs>
    <linearGradient id="bg" x1="0" y1="0" x2="1" y2="1">
      <stop offset="0" stop-color="#2479b8"/>
      <stop offset="1" stop-color="#1a3a5c"/>
    </linearGradient>
    <clipPath id="ball"><circle cx="12" cy="12" r="9.6"/></clipPath>
  </defs>
  <rect id="tile" width="512" height="512" rx="112" fill="url(#bg)"/>
  <g transform="translate(28 28) scale(19)" fill="none" stroke-linecap="round" stroke-linejoin="round">
    <circle cx="12" cy="12" r="10" fill="#ffffff" stroke="#ffffff" stroke-width="1.2"/>
    <g stroke="#1a3a5c" stroke-width="1.5" clip-path="url(#ball)">
      <path d="M11.1 7.1a16.55 16.55 0 0 1 10.9 4"/>
      <path d="M12 12a12.6 12.6 0 0 1-8.7 5"/>
      <path d="M16.8 13.6a16.55 16.55 0 0 1-9 7.5"/>
      <path d="M20.7 17a12.8 12.8 0 0 0-8.7-5 13.3 13.3 0 0 1 0-10"/>
      <path d="M6.3 3.8a16.55 16.55 0 0 0 1.9 11.5"/>
    </g>
    <circle cx="12" cy="12" r="10" stroke="#f2a900" stroke-width="1.2"/>
  </g>
</svg>
